<svg xmlns="http://www.w3.org/2000/svg" xmlns:xlink="http://www.w3.org/1999/xlink" width="200" height="200" version="1.1" style="shape-rendering:geometricPrecision;text-rendering:geometricPrecision;image-rendering:optimizeQuality;fill-rule:evenodd;clip-rule:evenodd"><g><path style="opacity:.99" fill="#424242" d="M 95.5,-0.5 C 96.5,-0.5 97.5,-0.5 98.5,-0.5C 99.0076,1.23267 99.841,1.566 101,0.5C 105.403,0.736857 107.57,3.07019 107.5,7.5C 105.139,7.67412 102.806,8.00745 100.5,8.5C 101.347,17.4719 101.68,26.4719 101.5,35.5C 104.899,36.0164 108.232,36.8497 111.5,38C 111.966,39.2988 111.966,40.7988 111.5,42.5C 108.882,42.2208 106.382,41.5541 104,40.5C 103.501,44.8206 103.334,49.1539 103.5,53.5C 101.439,49.5248 99.2728,45.5248 97,41.5C 95.2411,45.6443 93.4077,49.6443 91.5,53.5C 91.8256,49.1161 91.4922,44.7828 90.5,40.5C 88.5,41.1667 86.5,41.8333 84.5,42.5C 83.0499,41.1502 82.3832,39.4835 82.5,37.5C 86.5531,37.4297 90.0531,36.0963 93,33.5C 93.4997,25.1733 93.6664,16.84 93.5,8.5C 91.5,8.16667 89.5,7.83333 87.5,7.5C 87.3398,5.80081 87.5065,4.13414 88,2.5C 90.6719,1.71798 93.1719,0.717978 95.5,-0.5 Z"/></g><g><path style="opacity:.999" fill="#c40301" d="M 103.5,53.5 C 109.287,67.742 115.621,81.742 122.5,95.5C 114.314,95.388 105.981,95.2213 97.5,95C 100.063,94.237 100.063,93.737 97.5,93.5C 96.8333,93.6667 96.1667,93.8333 95.5,94C 96.376,95.586 97.376,97.086 98.5,98.5C 98.1667,98.8333 97.8333,99.1667 97.5,99.5C 95.8783,97.359 93.8783,95.6924 91.5,94.5C 91.5,93.8333 91.1667,93.5 90.5,93.5C 86.8553,89.5201 83.1886,85.5201 79.5,81.5C 84.0632,72.3773 88.0632,63.044 91.5,53.5C 93.4077,49.6443 95.2411,45.6443 97,41.5C 99.2728,45.5248 101.439,49.5248 103.5,53.5 Z"/></g><g><path style="opacity:.999" fill="#c50200" d="M 82.5,89.5 C 80.6115,90.322 78.6115,91.1553 76.5,92C 77.1667,92.3333 77.8333,92.6667 78.5,93C 77.1667,94 75.8333,95 74.5,96C 77.6331,95.9539 80.2998,96.9539 82.5,99C 79.3426,101.237 76.8426,100.737 75,97.5C 71.416,99.8997 71.7494,101.566 76,102.5C 78.5043,100.353 80.8376,100.353 83,102.5C 88.9531,101.643 94.9531,101.643 101,102.5C 106.331,99.1709 108.665,100.504 108,106.5C 110.994,102.751 113.827,102.751 116.5,106.5C 116.669,105.603 117.002,104.603 117.5,103.5C 118.478,103.977 119.311,104.643 120,105.5C 121.425,104.788 122.925,104.621 124.5,105C 122.02,104.085 121.353,102.585 122.5,100.5C 120.261,99.3345 120.261,98.0012 122.5,96.5C 125.485,101.798 128.485,107.132 131.5,112.5C 125.02,112.752 118.687,112.419 112.5,111.5C 111.417,112.365 111.251,113.365 112,114.5C 113,114.167 114,113.833 115,113.5C 117,114.5 117,115.5 115,116.5C 113.667,116.5 112.333,116.5 111,116.5C 110.5,116 110,115.5 109.5,115C 110.517,113.951 110.684,112.784 110,111.5C 101.687,111.777 93.6869,112.11 86,112.5C 84.2087,110.487 82.8753,110.487 82,112.5C 77.6667,112.167 73.3333,111.833 69,111.5C 67.6667,112.167 66.6667,113.167 66,114.5C 65.3292,113.748 64.4959,113.414 63.5,113.5C 67.825,104.181 72.6583,95.1807 78,86.5C 79.6664,87.3479 81.1664,88.3479 82.5,89.5 Z"/></g><g><path style="opacity:1" fill="#c70000" d="M 82.5,89.5 C 84.9384,91.2672 87.605,92.6006 90.5,93.5C 91.1667,93.5 91.5,93.8333 91.5,94.5C 93.8783,95.6924 95.8783,97.359 97.5,99.5C 97.8333,99.1667 98.1667,98.8333 98.5,98.5C 97.376,97.086 96.376,95.586 95.5,94C 96.1667,93.8333 96.8333,93.6667 97.5,93.5C 100.063,93.737 100.063,94.237 97.5,95C 105.981,95.2213 114.314,95.388 122.5,95.5C 122.5,95.8333 122.5,96.1667 122.5,96.5C 120.261,98.0012 120.261,99.3345 122.5,100.5C 121.353,102.585 122.02,104.085 124.5,105C 122.925,104.621 121.425,104.788 120,105.5C 119.311,104.643 118.478,103.977 117.5,103.5C 117.002,104.603 116.669,105.603 116.5,106.5C 113.827,102.751 110.994,102.751 108,106.5C 108.665,100.504 106.331,99.1709 101,102.5C 94.9531,101.643 88.9531,101.643 83,102.5C 80.8376,100.353 78.5043,100.353 76,102.5C 71.7494,101.566 71.416,99.8997 75,97.5C 76.8426,100.737 79.3426,101.237 82.5,99C 80.2998,96.9539 77.6331,95.9539 74.5,96C 75.8333,95 77.1667,94 78.5,93C 77.8333,92.6667 77.1667,92.3333 76.5,92C 78.6115,91.1553 80.6115,90.322 82.5,89.5 Z"/></g><g><path style="opacity:1" fill="#c60100" d="M 131.5,112.5 C 133.484,116.469 135.484,120.469 137.5,124.5C 133.833,124.5 130.167,124.5 126.5,124.5C 126.649,125.552 126.483,126.552 126,127.5C 125.667,126.167 125.333,124.833 125,123.5C 122,124.833 119,124.833 116,123.5C 114.667,126.167 113.333,126.167 112,123.5C 111.667,124.167 111.333,124.833 111,125.5C 108.599,124.398 106.099,124.231 103.5,125C 107.502,125.214 108.836,127.047 107.5,130.5C 105.833,129.167 104.167,127.833 102.5,126.5C 99.4759,124.224 96.1426,123.891 92.5,125.5C 91.7784,125.082 91.2784,124.416 91,123.5C 89.3403,123.324 87.6736,123.991 86,125.5C 85.6667,124.833 85.3333,124.167 85,123.5C 83,124.833 81,124.833 79,123.5C 78.3333,126.167 77.6667,126.167 77,123.5C 76.3333,126.167 75.6667,126.167 75,123.5C 74.3333,126.167 73.6667,126.167 73,123.5C 70.1402,123.888 67.1402,123.888 64,123.5C 63,124.167 62,124.833 61,125.5C 59.9887,124.663 58.8221,124.33 57.5,124.5C 59.754,120.993 61.754,117.327 63.5,113.5C 64.4959,113.414 65.3292,113.748 66,114.5C 66.6667,113.167 67.6667,112.167 69,111.5C 73.3333,111.833 77.6667,112.167 82,112.5C 82.8753,110.487 84.2087,110.487 86,112.5C 93.6869,112.11 101.687,111.777 110,111.5C 110.684,112.784 110.517,113.951 109.5,115C 110,115.5 110.5,116 111,116.5C 112.333,116.5 113.667,116.5 115,116.5C 117,115.5 117,114.5 115,113.5C 114,113.833 113,114.167 112,114.5C 111.251,113.365 111.417,112.365 112.5,111.5C 118.687,112.419 125.02,112.752 131.5,112.5 Z"/></g><g><path style="opacity:.99" fill="#424141" d="M 102.5,126.5 C 101.773,147.345 100.94,168.345 100,189.5C 99.4715,192.947 98.6382,196.281 97.5,199.5C 97.1667,199.5 96.8333,199.5 96.5,199.5C 95.3467,194.23 94.5133,188.897 94,183.5C 93.5731,164.495 93.0731,145.495 92.5,126.5C 92.5,126.167 92.5,125.833 92.5,125.5C 96.1426,123.891 99.4759,124.224 102.5,126.5 Z"/></g><g><path style="opacity:.999" fill="#c40200" d="M 92.5,125.5 C 92.5,125.833 92.5,126.167 92.5,126.5C 83.1052,134.937 79.7719,145.437 82.5,158C 82.7224,160.275 81.7224,161.441 79.5,161.5C 78.8288,160.153 78.8288,158.986 79.5,158C 77.7703,156.148 76.6036,156.314 76,158.5C 72.8825,157.603 69.8825,157.603 67,158.5C 65.3117,157.675 65.1451,156.675 66.5,155.5C 65.5617,154.447 64.395,153.78 63,153.5C 56.1861,154.342 49.0195,154.675 41.5,154.5C 46.8333,144.5 52.1667,134.5 57.5,124.5C 58.8221,124.33 59.9887,124.663 61,125.5C 62,124.833 63,124.167 64,123.5C 67.1402,123.888 70.1402,123.888 73,123.5C 73.6667,126.167 74.3333,126.167 75,123.5C 75.6667,126.167 76.3333,126.167 77,123.5C 77.6667,126.167 78.3333,126.167 79,123.5C 81,124.833 83,124.833 85,123.5C 85.3333,124.167 85.6667,124.833 86,125.5C 87.6736,123.991 89.3403,123.324 91,123.5C 91.2784,124.416 91.7784,125.082 92.5,125.5 Z"/></g><g><path style="opacity:.999" fill="#c60000" d="M 137.5,124.5 C 139.579,128.993 141.912,133.326 144.5,137.5C 140.828,138.466 140.828,139.966 144.5,142C 143.128,142.402 141.795,142.902 140.5,143.5C 139.5,142.167 138.5,142.167 137.5,143.5C 135.902,141.027 134.402,141.027 133,143.5C 130.149,142.756 127.483,142.756 125,143.5C 123.182,141.355 121.682,141.355 120.5,143.5C 118.833,142.167 117.167,142.167 115.5,143.5C 114.406,142.132 114.74,140.965 116.5,140C 115.747,138.513 114.914,138.346 114,139.5C 113.751,138.376 113.251,137.376 112.5,136.5C 111.893,136.624 111.56,136.957 111.5,137.5C 109.929,135.365 108.596,133.032 107.5,130.5C 108.836,127.047 107.502,125.214 103.5,125C 106.099,124.231 108.599,124.398 111,125.5C 111.333,124.833 111.667,124.167 112,123.5C 113.333,126.167 114.667,126.167 116,123.5C 119,124.833 122,124.833 125,123.5C 125.333,124.833 125.667,126.167 126,127.5C 126.483,126.552 126.649,125.552 126.5,124.5C 130.167,124.5 133.833,124.5 137.5,124.5 Z"/></g><g><path style="opacity:.998" fill="#c00501" d="M 144.5,137.5 C 147.336,142.83 149.836,148.164 152,153.5C 148.461,150.97 144.627,149.47 140.5,149C 146.904,152.735 152.737,157.235 158,162.5C 161.452,169.905 165.285,177.072 169.5,184C 159.189,179.347 148.856,174.347 138.5,169C 130.445,165.473 122.112,162.806 113.5,161C 113.841,153.182 113.175,145.348 111.5,137.5C 111.56,136.957 111.893,136.624 112.5,136.5C 113.251,137.376 113.751,138.376 114,139.5C 114.914,138.346 115.747,138.513 116.5,140C 114.74,140.965 114.406,142.132 115.5,143.5C 117.167,142.167 118.833,142.167 120.5,143.5C 121.682,141.355 123.182,141.355 125,143.5C 127.483,142.756 130.149,142.756 133,143.5C 134.402,141.027 135.902,141.027 137.5,143.5C 138.5,142.167 139.5,142.167 140.5,143.5C 141.795,142.902 143.128,142.402 144.5,142C 140.828,139.966 140.828,138.466 144.5,137.5 Z"/></g><g><path style="opacity:.999" fill="#c40300" d="M 79.5,161.5 C 60.7648,166.701 43.0981,174.368 26.5,184.5C 26.1667,184.167 25.8333,183.833 25.5,183.5C 30.8615,173.816 36.1949,164.15 41.5,154.5C 49.0195,154.675 56.1861,154.342 63,153.5C 64.395,153.78 65.5617,154.447 66.5,155.5C 65.1451,156.675 65.3117,157.675 67,158.5C 69.8825,157.603 72.8825,157.603 76,158.5C 76.6036,156.314 77.7703,156.148 79.5,158C 78.8288,158.986 78.8288,160.153 79.5,161.5 Z"/></g><g><path style="opacity:.612" fill="#cd221e" d="M 177.5,171.5 C 175.833,171.5 174.167,171.5 172.5,171.5C 172.84,169.452 172.507,168.452 171.5,168.5C 170.833,168.5 170.5,168.833 170.5,169.5C 170.5,170.167 170.5,170.833 170.5,171.5C 169.683,170.793 168.683,169.46 167.5,167.5C 170.282,166.048 172.782,166.381 175,168.5C 175.308,167.692 175.808,167.025 176.5,166.5C 177.452,168.045 177.785,169.712 177.5,171.5 Z"/></g><g><path style="opacity:.034" fill="#000505" d="M 177.5,171.5 C 175.274,172.756 172.941,172.756 170.5,171.5C 170.5,170.833 170.5,170.167 170.5,169.5C 171.167,169.5 171.5,169.167 171.5,168.5C 172.507,168.452 172.84,169.452 172.5,171.5C 174.167,171.5 175.833,171.5 177.5,171.5 Z"/></g></svg>