<?xml version="1.0" encoding="UTF-8"?>
<svg xmlns="http://www.w3.org/2000/svg" version="1.1" width="436px" height="389px" style="shape-rendering:geometricPrecision; text-rendering:geometricPrecision; image-rendering:optimizeQuality; fill-rule:evenodd; clip-rule:evenodd" xmlns:xlink="http://www.w3.org/1999/xlink">
<symbol id="C" viewBox="0 0 436 389">
<g><path style="opacity:0.949" fill="#fe109f" d="M 253.5,-0.5 C 258.833,-0.5 264.167,-0.5 269.5,-0.5C 269.5,-0.166667 269.5,0.166667 269.5,0.5C 186.962,6.00378 122.462,42.6704 76,110.5C 63.1119,131.933 53.2785,154.599 46.5,178.5C 41.1667,178.5 35.8333,178.5 30.5,178.5C 30.5,183.167 30.5,187.833 30.5,192.5C 24.8333,192.5 19.1667,192.5 13.5,192.5C 13.5,187.833 13.5,183.167 13.5,178.5C 18.8437,178.666 24.1771,178.499 29.5,178C 31.0871,172.487 32.7538,166.987 34.5,161.5C 38.97,160.514 43.6367,160.181 48.5,160.5C 48.5,155.833 48.5,151.167 48.5,146.5C 45.8333,146.5 43.1667,146.5 40.5,146.5C 61.1494,96.3424 95.1494,57.8424 142.5,31C 177.203,11.9119 214.203,1.4119 253.5,-0.5 Z"/></g>
<g><path style="opacity:0.999" fill="#fefefe" d="M 270.5,-0.5 C 275.833,-0.5 281.167,-0.5 286.5,-0.5C 326.758,2.41954 363.091,15.9195 395.5,40C 403.667,46.8333 411.167,54.3333 418,62.5C 418.667,63.1667 418.667,63.8333 418,64.5C 400.579,81.4184 383.746,98.7518 367.5,116.5C 364.52,119.144 361.52,121.811 358.5,124.5C 355.811,121.48 353.144,118.48 350.5,115.5C 334.292,95.8758 313.625,83.0425 288.5,77C 281.555,75.7703 274.555,75.2703 267.5,75.5C 214.503,77.9052 174.67,101.905 148,147.5C 141.493,159.501 136.993,172.168 134.5,185.5C 140.167,185.5 145.833,185.5 151.5,185.5C 167.167,185.5 182.833,185.5 198.5,185.5C 198.5,190.167 198.5,194.833 198.5,199.5C 193.167,199.5 187.833,199.5 182.5,199.5C 176.833,199.5 171.167,199.5 165.5,199.5C 161.329,236.848 173.662,267.348 202.5,291C 220.494,303.608 240.494,309.441 262.5,308.5C 291.379,307.708 318.046,299.541 342.5,284C 347.328,280.419 352.328,277.085 357.5,274C 358.252,273.329 358.586,272.496 358.5,271.5C 361.874,269.057 365.374,266.724 369,264.5C 371.378,266.708 373.544,269.042 375.5,271.5C 386.493,287.463 397.993,303.13 410,318.5C 410.617,319.449 410.451,320.282 409.5,321C 365.559,358.96 314.559,381.127 256.5,387.5C 254.265,387.205 252.265,387.539 250.5,388.5C 246.833,388.5 243.167,388.5 239.5,388.5C 237.735,387.539 235.735,387.205 233.5,387.5C 179.442,385.058 135.942,362.725 103,320.5C 87.2453,296.492 78.0786,270.159 75.5,241.5C 75.5,236.833 75.5,232.167 75.5,227.5C 75.336,215.779 76.0026,204.113 77.5,192.5C 71.8333,192.5 66.1667,192.5 60.5,192.5C 50.8333,192.5 41.1667,192.5 31.5,192.5C 31.5,188.167 31.5,183.833 31.5,179.5C 36.6946,179.821 41.6946,179.487 46.5,178.5C 53.2785,154.599 63.1119,131.933 76,110.5C 122.462,42.6704 186.962,6.00378 269.5,0.5C 270.167,0.5 270.5,0.166667 270.5,-0.5 Z"/></g>
<g><path style="opacity:0.929" fill="#4b60ff" d="M 286.5,-0.5 C 292.167,-0.5 297.833,-0.5 303.5,-0.5C 355.989,2.41463 399.989,23.0813 435.5,61.5C 435.5,62.5 435.5,63.5 435.5,64.5C 416.062,84.4383 396.396,104.272 376.5,124C 375.833,124.667 375.167,124.667 374.5,124C 372.498,121.14 370.165,118.64 367.5,116.5C 383.746,98.7518 400.579,81.4184 418,64.5C 418.667,63.8333 418.667,63.1667 418,62.5C 411.167,54.3333 403.667,46.8333 395.5,40C 363.091,15.9195 326.758,2.41954 286.5,-0.5 Z"/></g>
<g><path style="opacity:0.956" fill="#4b5fff" d="M 267.5,75.5 C 267.5,75.8333 267.5,76.1667 267.5,76.5C 213.587,86.9164 176.42,117.583 156,168.5C 154.188,174.1 152.688,179.767 151.5,185.5C 145.833,185.5 140.167,185.5 134.5,185.5C 136.993,172.168 141.493,159.501 148,147.5C 174.67,101.905 214.503,77.9052 267.5,75.5 Z"/></g>
<g><path style="opacity:0.936" fill="#fe0f9f" d="M 267.5,76.5 C 267.5,76.1667 267.5,75.8333 267.5,75.5C 274.555,75.2703 281.555,75.7703 288.5,77C 313.625,83.0425 334.292,95.8758 350.5,115.5C 347.854,118.812 344.854,121.812 341.5,124.5C 322.754,99.4552 298.088,83.4552 267.5,76.5 Z"/></g>
<g><path style="opacity:0.856" fill="#fe009d" d="M 171.5,139.5 C 176.5,139.5 181.5,139.5 186.5,139.5C 186.5,144.5 186.5,149.5 186.5,154.5C 181.5,154.5 176.5,154.5 171.5,154.5C 171.5,149.5 171.5,144.5 171.5,139.5 Z"/></g>
<g><path style="opacity:0.856" fill="#fefffe" d="M 188.5,139.5 C 193.5,139.5 198.5,139.5 203.5,139.5C 203.5,144.5 203.5,149.5 203.5,154.5C 198.5,154.5 193.5,154.5 188.5,154.5C 188.5,149.5 188.5,144.5 188.5,139.5 Z"/></g>
<g><path style="opacity:0.95" fill="#545afa" d="M 219.5,139.5 C 219.5,144.5 219.5,149.5 219.5,154.5C 214.833,154.5 210.167,154.5 205.5,154.5C 205.5,149.5 205.5,144.5 205.5,139.5C 210.167,139.5 214.833,139.5 219.5,139.5 Z"/></g>
<g><path style="opacity:0.917" fill="#f717a5" d="M 219.5,139.5 C 221.167,139.5 222.833,139.5 224.5,139.5C 224.5,144.5 224.5,149.5 224.5,154.5C 222.833,154.5 221.167,154.5 219.5,154.5C 219.5,149.5 219.5,144.5 219.5,139.5 Z"/></g>
<g><path style="opacity:0.904" fill="#485dff" d="M 280.5,139.5 C 286.167,139.5 291.833,139.5 297.5,139.5C 297.5,144.5 297.5,149.5 297.5,154.5C 291.833,154.5 286.167,154.5 280.5,154.5C 280.5,149.5 280.5,144.5 280.5,139.5 Z"/></g>
<g><path style="opacity:1" fill="#f8f4fd" d="M 224.5,139.5 C 243.167,139.5 261.833,139.5 280.5,139.5C 280.5,144.5 280.5,149.5 280.5,154.5C 261.833,154.5 243.167,154.5 224.5,154.5C 224.5,149.5 224.5,144.5 224.5,139.5 Z"/></g>
<g><path style="opacity:0.872" fill="#fe009d" d="M -0.5,146.5 C 4.5,146.5 9.5,146.5 14.5,146.5C 14.5,151.5 14.5,156.5 14.5,161.5C 9.5,161.5 4.5,161.5 -0.5,161.5C -0.5,156.5 -0.5,151.5 -0.5,146.5 Z"/></g>
<g><path style="opacity:0.872" fill="#fefffe" d="M 16.5,146.5 C 21.5,146.5 26.5,146.5 31.5,146.5C 31.5,151.5 31.5,156.5 31.5,161.5C 26.5,161.5 21.5,161.5 16.5,161.5C 16.5,156.5 16.5,151.5 16.5,146.5 Z"/></g>
<g><path style="opacity:0.951" fill="#545bfb" d="M 40.5,146.5 C 43.1667,146.5 45.8333,146.5 48.5,146.5C 48.5,151.167 48.5,155.833 48.5,160.5C 43.6367,160.181 38.97,160.514 34.5,161.5C 33.5128,156.695 33.1795,151.695 33.5,146.5C 35.8333,146.5 38.1667,146.5 40.5,146.5 Z"/></g>
<g><path style="opacity:1" fill="#ffbee6" d="M 46.5,178.5 C 41.6946,179.487 36.6946,179.821 31.5,179.5C 31.5,183.833 31.5,188.167 31.5,192.5C 31.1667,192.5 30.8333,192.5 30.5,192.5C 30.5,187.833 30.5,183.167 30.5,178.5C 35.8333,178.5 41.1667,178.5 46.5,178.5 Z"/></g>
<g><path style="opacity:1" fill="#485dff" d="M 198.5,185.5 C 202.5,185.5 206.5,185.5 210.5,185.5C 210.5,190.167 210.5,194.833 210.5,199.5C 206.5,199.5 202.5,199.5 198.5,199.5C 198.5,194.833 198.5,190.167 198.5,185.5 Z"/></g>
<g><path style="opacity:1" fill="#fefffe" d="M 210.5,185.5 C 215.167,185.5 219.833,185.5 224.5,185.5C 224.5,190.167 224.5,194.833 224.5,199.5C 219.833,199.5 215.167,199.5 210.5,199.5C 210.5,194.833 210.5,190.167 210.5,185.5 Z"/></g>
<g><path style="opacity:1" fill="#485dff" d="M 227.5,185.5 C 232.167,185.5 236.833,185.5 241.5,185.5C 241.5,190.167 241.5,194.833 241.5,199.5C 236.833,199.5 232.167,199.5 227.5,199.5C 227.5,194.833 227.5,190.167 227.5,185.5 Z"/></g>
<g><path style="opacity:0.959" fill="#fe0f9f" d="M 60.5,192.5 C 66.1667,192.5 71.8333,192.5 77.5,192.5C 76.0026,204.113 75.336,215.779 75.5,227.5C 71.1667,227.5 66.8333,227.5 62.5,227.5C 62.5,232.167 62.5,236.833 62.5,241.5C 66.8333,241.5 71.1667,241.5 75.5,241.5C 78.0786,270.159 87.2453,296.492 103,320.5C 135.942,362.725 179.442,385.058 233.5,387.5C 233.5,387.833 233.5,388.167 233.5,388.5C 229.833,388.5 226.167,388.5 222.5,388.5C 177.122,387.473 137.456,371.973 103.5,342C 76.1705,314.163 61.1705,280.663 58.5,241.5C 59.1633,239.359 59.4966,237.025 59.5,234.5C 59.3795,231.559 58.7128,228.892 57.5,226.5C 57.8391,215.097 58.8391,203.764 60.5,192.5 Z"/></g>
<g><path style="opacity:0.96" fill="#4a5ffe" d="M 182.5,199.5 C 179.123,232.878 189.123,261.378 212.5,285C 227.035,297.099 243.702,304.599 262.5,307.5C 262.5,307.833 262.5,308.167 262.5,308.5C 240.494,309.441 220.494,303.608 202.5,291C 173.662,267.348 161.329,236.848 165.5,199.5C 171.167,199.5 176.833,199.5 182.5,199.5 Z"/></g>
<g><path style="opacity:0.934" fill="#fe009d" d="M 28.5,226.5 C 33.1667,226.5 37.8333,226.5 42.5,226.5C 42.5,231.5 42.5,236.5 42.5,241.5C 37.8333,241.5 33.1667,241.5 28.5,241.5C 28.5,236.5 28.5,231.5 28.5,226.5 Z"/></g>
<g><path style="opacity:0.937" fill="#fffafd" d="M 57.5,226.5 C 58.7128,228.892 59.3795,231.559 59.5,234.5C 59.4966,237.025 59.1633,239.359 58.5,241.5C 54.1667,241.5 49.8333,241.5 45.5,241.5C 45.5,236.5 45.5,231.5 45.5,226.5C 49.5,226.5 53.5,226.5 57.5,226.5 Z"/></g>
<g><path style="opacity:1" fill="#515ffd" d="M 75.5,227.5 C 75.5,232.167 75.5,236.833 75.5,241.5C 71.1667,241.5 66.8333,241.5 62.5,241.5C 62.5,236.833 62.5,232.167 62.5,227.5C 66.8333,227.5 71.1667,227.5 75.5,227.5 Z"/></g>
<g><path style="opacity:0.866" fill="#fe009d" d="M 388.5,266.5 C 387.518,265.859 386.518,265.193 385.5,264.5C 384.482,265.193 383.482,265.859 382.5,266.5C 382.5,261.5 382.5,256.5 382.5,251.5C 387.5,251.5 392.5,251.5 397.5,251.5C 397.5,256.5 397.5,261.5 397.5,266.5C 394.5,266.5 391.5,266.5 388.5,266.5 Z"/></g>
<g><path style="opacity:0.917" fill="#fefffe" d="M 399.5,251.5 C 404.167,251.5 408.833,251.5 413.5,251.5C 413.5,256.5 413.5,261.5 413.5,266.5C 408.833,266.5 404.167,266.5 399.5,266.5C 399.5,261.5 399.5,256.5 399.5,251.5 Z"/></g>
<g><path style="opacity:0.917" fill="#485dff" d="M 416.5,251.5 C 421.167,251.5 425.833,251.5 430.5,251.5C 430.5,256.5 430.5,261.5 430.5,266.5C 425.833,266.5 421.167,266.5 416.5,266.5C 416.5,261.5 416.5,256.5 416.5,251.5 Z"/></g>
<g><path style="opacity:0.92" fill="#fe13a0" d="M 358.5,271.5 C 358.586,272.496 358.252,273.329 357.5,274C 352.328,277.085 347.328,280.419 342.5,284C 318.046,299.541 291.379,307.708 262.5,308.5C 262.5,308.167 262.5,307.833 262.5,307.5C 295.695,301.067 325.028,286.901 350.5,265C 351.635,264.251 352.635,264.417 353.5,265.5C 355.185,267.571 356.852,269.571 358.5,271.5 Z"/></g>
<g><path style="opacity:0.935" fill="#4b5ffe" d="M 388.5,266.5 C 400.783,283.29 413.283,299.956 426,316.5C 426.982,317.759 427.315,319.092 427,320.5C 381.406,360.879 328.24,383.546 267.5,388.5C 263.833,388.5 260.167,388.5 256.5,388.5C 256.5,388.167 256.5,387.833 256.5,387.5C 314.559,381.127 365.559,358.96 409.5,321C 410.451,320.282 410.617,319.449 410,318.5C 397.993,303.13 386.493,287.463 375.5,271.5C 378.112,270.221 380.445,268.555 382.5,266.5C 383.482,265.859 384.482,265.193 385.5,264.5C 386.518,265.193 387.518,265.859 388.5,266.5 Z"/></g>
</symbol>
</svg>
