<svg xmlns="http://www.w3.org/2000/svg"><defs><symbol id="astro" viewBox="0 0 85 107"><path fill="#F041FF" d="M27.5894 91.1365C22.7555 86.7178 21.3444 77.4335 23.3583 70.7072C26.8503 74.948 31.6888 76.2914 36.7005 77.0497C44.4375 78.2199 52.0359 77.7822 59.2232 74.2459C60.0454 73.841 60.8052 73.3027 61.7036 72.7574C62.378 74.714 62.5535 76.6892 62.318 78.6996C61.7452 83.5957 59.3086 87.3778 55.4332 90.2448C53.8835 91.3916 52.2437 92.4167 50.6432 93.4979C45.7262 96.8213 44.3959 100.718 46.2435 106.386C46.2874 106.525 46.3267 106.663 46.426 107C43.9155 105.876 42.0817 104.24 40.6845 102.089C39.2087 99.8193 38.5066 97.3081 38.4696 94.5909C38.4511 93.2686 38.4511 91.9345 38.2733 90.6309C37.8391 87.4527 36.3471 86.0297 33.5364 85.9478C30.6518 85.8636 28.37 87.6469 27.7649 90.4554C27.7187 90.6707 27.6517 90.8837 27.5847 91.1341L27.5894 91.1365Z"/><path fill="currentColor" d="M0 69.5866C0 69.5866 14.3139 62.6137 28.6678 62.6137L39.4901 29.1204C39.8953 27.5007 41.0783 26.3999 42.4139 26.3999C43.7495 26.3999 44.9325 27.5007 45.3377 29.1204L56.1601 62.6137C73.1601 62.6137 84.8278 69.5866 84.8278 69.5866C84.8278 69.5866 60.5145 3.35233 60.467 3.21944C59.7692 1.2612 58.5911 0 57.0029 0H27.8274C26.2392 0 25.1087 1.2612 24.3634 3.21944C24.3108 3.34983 0 69.5866 0 69.5866Z"/></symbol><symbol id="javascript" viewBox="0 0 630 630"><rect width="630" height="630" fill="#f7df1e"/><path fill="#000" d="m423.2 492.19c12.69 20.72 29.2 35.95 58.4 35.95 24.53 0 40.2-12.26 40.2-29.2 0-20.3-16.1-27.49-43.1-39.3l-14.8-6.35c-42.72-18.2-71.1-41-71.1-89.2 0-44.4 33.83-78.2 86.7-78.2 37.64 0 64.7 13.1 84.2 47.4l-46.1 29.6c-10.15-18.2-21.1-25.37-38.1-25.37-17.34 0-28.33 11-28.33 25.37 0 17.76 11 24.95 36.4 35.95l14.8 6.34c50.3 21.57 78.7 43.56 78.7 93 0 53.3-41.87 82.5-98.1 82.5-54.98 0-90.5-26.2-107.88-60.54zm-209.13 5.13c9.3 16.5 17.76 30.45 38.1 30.45 19.45 0 31.72-7.61 31.72-37.2v-201.3h59.2v202.1c0 61.3-35.94 89.2-88.4 89.2-47.4 0-74.85-24.53-88.81-54.075z"/></symbol><symbol id="typescript" fill="none" viewBox="0 0 512 512"><rect width="512" height="512" fill="#3178c6" rx="50"/><rect width="512" height="512" fill="#3178c6" rx="50"/><path fill="#fff" fill-rule="evenodd" d="m316.939 407.424v50.061c8.138 4.172 17.763 7.3 28.875 9.386s22.823 3.129 35.135 3.129c11.999 0 23.397-1.147 34.196-3.442 10.799-2.294 20.268-6.075 28.406-11.342 8.138-5.266 14.581-12.15 19.328-20.65s7.121-19.007 7.121-31.522c0-9.074-1.356-17.026-4.069-23.857s-6.625-12.906-11.738-18.225c-5.112-5.319-11.242-10.091-18.389-14.315s-15.207-8.213-24.18-11.967c-6.573-2.712-12.468-5.345-17.685-7.9-5.217-2.556-9.651-5.163-13.303-7.822-3.652-2.66-6.469-5.476-8.451-8.448-1.982-2.973-2.974-6.336-2.974-10.091 0-3.441.887-6.544 2.661-9.308s4.278-5.136 7.512-7.118c3.235-1.981 7.199-3.52 11.894-4.615 4.696-1.095 9.912-1.642 15.651-1.642 4.173 0 8.581.313 13.224.938 4.643.626 9.312 1.591 14.008 2.894 4.695 1.304 9.259 2.947 13.694 4.928 4.434 1.982 8.529 4.276 12.285 6.884v-46.776c-7.616-2.92-15.937-5.084-24.962-6.492s-19.381-2.112-31.066-2.112c-11.895 0-23.163 1.278-33.805 3.833s-20.006 6.544-28.093 11.967c-8.086 5.424-14.476 12.333-19.171 20.729-4.695 8.395-7.043 18.433-7.043 30.114 0 14.914 4.304 27.638 12.912 38.172 8.607 10.533 21.675 19.45 39.204 26.751 6.886 2.816 13.303 5.579 19.25 8.291s11.086 5.528 15.415 8.448c4.33 2.92 7.747 6.101 10.252 9.543 2.504 3.441 3.756 7.352 3.756 11.733 0 3.233-.783 6.231-2.348 8.995s-3.939 5.162-7.121 7.196-7.147 3.624-11.894 4.771c-4.748 1.148-10.303 1.721-16.668 1.721-10.851 0-21.597-1.903-32.24-5.71-10.642-3.806-20.502-9.516-29.579-17.13zm-84.159-123.342h64.22v-41.082h-179v41.082h63.906v182.918h50.874z" clip-rule="evenodd"/></symbol><symbol id="tailwind" fill="none" viewBox="0 0 47 40"><path fill="#6366f1" d="M23.5 6.5C17.5 6.5 13.75 9.5 12.25 15.5C14.5 12.5 17.125 11.375 20.125 12.125C21.8367 12.5529 23.0601 13.7947 24.4142 15.1692C26.6202 17.4084 29.1734 20 34.75 20C40.75 20 44.5 17 46 11C43.75 14 41.125 15.125 38.125 14.375C36.4133 13.9471 35.1899 12.7053 33.8357 11.3308C31.6297 9.09158 29.0766 6.5 23.5 6.5ZM12.25 20C6.25 20 2.5 23 1 29C3.25 26 5.875 24.875 8.875 25.625C10.5867 26.0529 11.8101 27.2947 13.1642 28.6693C15.3702 30.9084 17.9234 33.5 23.5 33.5C29.5 33.5 33.25 30.5 34.75 24.5C32.5 27.5 29.875 28.625 26.875 27.875C25.1633 27.4471 23.9399 26.2053 22.5858 24.8307C20.3798 22.5916 17.8266 20 12.25 20Z"/></symbol></defs><symbol id="k8s" fill="none" viewBox="0 0 256 249"><path fill="#326de6" d="M82.085 244.934c-5.946 0-11.561-2.642-15.36-7.432L8.92 165.657c-3.799-4.79-5.285-10.9-3.799-16.847l20.645-89.682c1.321-5.946 5.285-10.736 10.736-13.378l83.571-39.97c2.643-1.32 5.616-1.981 8.589-1.981c2.973 0 5.945.66 8.588 1.982l83.572 39.804c5.45 2.642 9.414 7.432 10.735 13.378l20.645 89.682c1.322 5.946 0 12.057-3.798 16.847l-57.807 71.845c-3.799 4.624-9.414 7.432-15.36 7.432z"/><path fill="#fff" d="M128.495 7.928c2.313 0 4.625.495 6.772 1.486l83.572 39.804c4.294 2.147 7.597 6.111 8.588 10.736l20.645 89.682c1.156 4.79 0 9.745-3.138 13.543l-57.806 71.846c-2.973 3.798-7.598 5.945-12.387 5.945H82.085c-4.79 0-9.414-2.147-12.387-5.945l-57.806-71.846c-2.973-3.798-4.13-8.753-3.138-13.543l20.645-89.682c1.156-4.79 4.294-8.754 8.588-10.736L121.56 9.25c2.147-.826 4.624-1.321 6.936-1.321m0-7.763c-3.468 0-6.936.826-10.24 2.312l-83.571 39.97c-6.607 3.138-11.231 8.918-12.883 16.02L1.156 148.15c-1.651 7.102 0 14.369 4.625 20.15l57.806 71.845c4.46 5.615 11.231 8.753 18.333 8.753h92.655c7.102 0 13.874-3.138 18.333-8.753l57.807-71.846c4.624-5.615 6.276-13.047 4.624-20.15l-20.645-89.682c-1.651-7.102-6.276-12.882-12.882-16.02L138.57 2.476C135.432.991 131.964.165 128.495.165"/><path fill="#fff" d="M212.232 142.534c-.165 0-.165 0 0 0h-.165c-.165 0-.33 0-.33-.165c-.33 0-.66-.165-.991-.165c-1.156-.165-2.147-.33-3.138-.33c-.496 0-.991 0-1.652-.166h-.165c-3.468-.33-6.276-.66-8.919-1.486c-1.156-.496-1.486-1.156-1.817-1.817c0-.165-.165-.165-.165-.33l-2.147-.66a65.33 65.33 0 0 0-1.156-23.289a68.054 68.054 0 0 0-9.249-21.636l1.652-1.486v-.33c0-.826.165-1.652.825-2.478c1.982-1.817 4.46-3.303 7.433-5.12c.495-.33.99-.495 1.486-.826c.991-.495 1.817-.99 2.808-1.651c.165-.165.495-.33.826-.66c.165-.166.33-.166.33-.331c2.312-1.982 2.808-5.285 1.156-7.433c-.826-1.156-2.312-1.816-3.799-1.816c-1.32 0-2.477.495-3.633 1.321l-.33.33c-.33.165-.496.496-.826.661c-.826.826-1.487 1.486-2.147 2.312c-.33.33-.66.826-1.156 1.156c-2.313 2.478-4.46 4.46-6.607 5.946c-.495.33-.99.496-1.486.496c-.33 0-.661 0-.991-.166h-.33l-1.983 1.322c-2.147-2.312-4.459-4.294-6.771-6.276a65.958 65.958 0 0 0-34.519-13.709l-.165-2.147l-.33-.33c-.496-.496-1.156-.991-1.322-2.147c-.165-2.643.166-5.616.496-8.919v-.165c0-.496.165-1.156.33-1.652c.165-.99.33-1.982.496-3.138v-1.486c0-2.973-2.313-5.45-5.12-5.45c-1.322 0-2.643.66-3.634 1.651c-.99.991-1.486 2.312-1.486 3.799v1.321c0 1.156.165 2.147.495 3.138c.165.496.165.991.33 1.652v.165c.33 3.303.826 6.276.496 8.919c-.165 1.156-.826 1.651-1.321 2.147l-.33.33l-.166 2.147c-2.973.33-5.946.66-8.919 1.321c-12.717 2.808-23.948 9.25-32.701 18.498l-1.652-1.156h-.33c-.33 0-.661.165-.991.165c-.496 0-.991-.165-1.487-.495c-2.147-1.486-4.294-3.634-6.606-6.111c-.33-.33-.66-.826-1.156-1.156c-.661-.826-1.322-1.487-2.148-2.312c-.165-.166-.495-.33-.825-.661c-.165-.165-.33-.165-.33-.33a5.772 5.772 0 0 0-3.634-1.322c-1.487 0-2.973.661-3.799 1.817c-1.652 2.147-1.156 5.45 1.156 7.432c.165 0 .165.166.33.166c.33.165.496.495.826.66c.991.66 1.817 1.156 2.808 1.652c.496.165.991.495 1.487.826c2.972 1.816 5.45 3.303 7.432 5.12c.826.825.826 1.651.826 2.477v.33l1.651 1.487c-.33.495-.66.826-.826 1.321c-8.258 13.048-11.396 28.408-9.249 43.603l-2.147.66c0 .166-.165.166-.165.33c-.33.661-.826 1.322-1.817 1.817c-2.477.826-5.45 1.157-8.918 1.487h-.166c-.495 0-1.156 0-1.651.165c-.991 0-1.982.165-3.138.33c-.33 0-.66.166-.991.166c-.165 0-.33 0-.496.165c-2.973.66-4.79 3.468-4.294 6.11c.496 2.313 2.643 3.8 5.285 3.8c.496 0 .826 0 1.322-.166c.165 0 .33 0 .33-.165c.33 0 .66-.165.99-.165c1.157-.33 1.983-.66 2.974-1.156c.495-.165.99-.496 1.486-.66h.165c3.138-1.157 5.946-2.148 8.589-2.478h.33c.991 0 1.652.495 2.147.826c.165 0 .165.165.33.165l2.313-.33c3.964 12.221 11.561 23.122 21.636 31.05c2.312 1.816 4.624 3.303 7.102 4.79l-.991 2.146c0 .166.165.166.165.33c.33.661.66 1.487.33 2.643c-.99 2.478-2.477 4.955-4.294 7.763v.165c-.33.496-.66.826-.99 1.321c-.661.826-1.157 1.652-1.818 2.643c-.165.165-.33.495-.495.826c0 .165-.165.33-.165.33c-1.321 2.808-.33 5.946 2.147 7.102c.66.33 1.321.496 1.982.496c1.982 0 3.964-1.322 4.955-3.139c0-.165.165-.33.165-.33c.165-.33.33-.66.495-.826c.496-1.156.661-1.982.991-2.973l.496-1.486c1.156-3.303 1.982-5.946 3.468-8.258c.66-.991 1.487-1.156 2.147-1.487c.165 0 .165 0 .33-.165l1.157-2.147c7.267 2.808 15.195 4.294 23.122 4.294c4.79 0 9.745-.495 14.37-1.651a73.402 73.402 0 0 0 8.588-2.478l.99 1.817c.166 0 .166 0 .331.165c.826.165 1.486.496 2.147 1.487c1.321 2.312 2.312 5.12 3.468 8.258v.165l.496 1.486c.33.991.495 1.982.99 2.973c.166.33.331.496.496.826c0 .165.166.33.166.33c.99 1.982 2.972 3.139 4.954 3.139c.661 0 1.322-.166 1.982-.496c1.156-.66 2.147-1.652 2.478-2.973c.33-1.321.33-2.808-.33-4.129c0-.165-.166-.165-.166-.33c-.165-.33-.33-.66-.495-.826c-.496-.991-1.156-1.817-1.817-2.643c-.33-.495-.66-.825-.99-1.32v-.166c-1.818-2.808-3.47-5.285-4.295-7.763c-.33-1.156 0-1.816.165-2.642c0-.165.165-.165.165-.33l-.826-1.982c8.754-5.12 16.186-12.388 21.802-21.306c2.973-4.625 5.285-9.745 6.936-14.865l1.982.33c.166 0 .166-.165.33-.165c.661-.33 1.157-.825 2.148-.825h.33c2.643.33 5.45 1.32 8.589 2.477h.165c.495.165.99.495 1.486.66c.991.496 1.817.826 2.973 1.157c.33 0 .66.165.991.165c.165 0 .33 0 .495.165c.496.165.826.165 1.322.165c2.477 0 4.624-1.651 5.285-3.798c0-1.982-1.817-4.625-4.79-5.45m-76.47-8.093l-7.267 3.469l-7.267-3.469l-1.816-7.762l4.954-6.276h8.093l4.955 6.276zm43.108-17.176a52.078 52.078 0 0 1 1.156 16.68l-25.27-7.266c-2.312-.66-3.633-2.973-3.138-5.285c.165-.661.496-1.322.991-1.817l19.985-18.003c2.807 4.625 4.954 9.91 6.276 15.69m-14.204-25.6l-21.636 15.36c-1.817 1.156-4.295.825-5.781-.991c-.495-.496-.66-1.157-.826-1.817l-1.486-26.922a50.13 50.13 0 0 1 29.729 14.37M116.769 78.12c1.817-.33 3.468-.66 5.285-.99l-1.486 26.425c-.165 2.312-1.982 4.294-4.46 4.294c-.66 0-1.486-.165-1.982-.495L92.16 91.665c6.772-6.772 15.195-11.397 24.609-13.544m-32.537 23.453l19.654 17.507c1.817 1.487 1.982 4.294.496 6.111c-.496.66-1.156 1.156-1.982 1.322l-25.6 7.432c-.991-11.231 1.486-22.627 7.432-32.372m-4.46 44.759l26.262-4.46c2.147-.165 4.129 1.322 4.624 3.469c.165.99.165 1.817-.165 2.643l-10.075 24.278c-9.249-5.946-16.681-15.03-20.645-25.93m60.285 32.867c-3.799.826-7.598 1.321-11.562 1.321c-5.78 0-11.396-.99-16.68-2.642l13.047-23.618c1.321-1.487 3.468-2.147 5.285-1.156a7.04 7.04 0 0 1 1.982 1.816l12.717 22.958c-1.486.495-3.138.826-4.79 1.321m32.206-22.957c-4.129 6.606-9.58 11.891-15.855 16.02l-10.405-24.94c-.496-1.981.33-4.128 2.312-5.12c.66-.33 1.486-.495 2.312-.495l26.426 4.46c-.991 3.633-2.643 6.937-4.79 10.075"/></symbol><symbol id="arch" fill="none" viewBox="0 0 256 256"><path fill="#1793d1" d="M127.976 0c-11.397 27.936-18.27 46.21-30.959 73.315c7.78 8.245 17.329 17.846 32.837 28.69c-16.673-6.859-28.045-13.746-36.544-20.892C77.07 114.992 51.63 163.25 0 256c40.579-23.422 72.035-37.863 101.35-43.373a74.264 74.264 0 0 1-1.926-17.378l.049-1.3c.644-25.992 14.168-45.98 30.188-44.624c16.02 1.357 28.473 23.542 27.83 49.535c-.122 4.89-.674 9.596-1.638 13.96C184.851 218.49 215.97 232.894 256 256c-7.893-14.529-14.938-27.626-21.666-40.1c-10.598-8.212-21.652-18.9-44.2-30.47c15.498 4.025 26.595 8.67 35.244 13.863C156.973 71.958 151.434 55.038 127.976 0"/></symbol><symbol id="python" fill="none" viewBox="0 0 256 255"><defs><linearGradient id="logosPython0" x1="12.959%" x2="79.639%" y1="12.039%" y2="78.201%"><stop offset="0%" stop-color="#387eb8"/><stop offset="100%" stop-color="#366994"/></linearGradient><linearGradient id="logosPython1" x1="19.128%" x2="90.742%" y1="20.579%" y2="88.429%"><stop offset="0%" stop-color="#ffe052"/><stop offset="100%" stop-color="#ffc331"/></linearGradient></defs><path fill="url(#logosPython0)" d="M126.916.072c-64.832 0-60.784 28.115-60.784 28.115l.072 29.128h61.868v8.745H41.631S.145 61.355.145 126.77c0 65.417 36.21 63.097 36.21 63.097h21.61v-30.356s-1.165-36.21 35.632-36.21h61.362s34.475.557 34.475-33.319V33.97S194.67.072 126.916.072M92.802 19.66a11.12 11.12 0 0 1 11.13 11.13a11.12 11.12 0 0 1-11.13 11.13a11.12 11.12 0 0 1-11.13-11.13a11.12 11.12 0 0 1 11.13-11.13"/><path fill="url(#logosPython1)" d="M128.757 254.126c64.832 0 60.784-28.115 60.784-28.115l-.072-29.127H127.6v-8.745h86.441s41.486 4.705 41.486-60.712c0-65.416-36.21-63.096-36.21-63.096h-21.61v30.355s1.165 36.21-35.632 36.21h-61.362s-34.475-.557-34.475 33.32v56.013s-5.235 33.897 62.518 33.897m34.114-19.586a11.12 11.12 0 0 1-11.13-11.13a11.12 11.12 0 0 1 11.13-11.131a11.12 11.12 0 0 1 11.13 11.13a11.12 11.12 0 0 1-11.13 11.13"/></symbol><symbol id="golang" fill="none" viewBox="0 0 256 348"><path fill="#f6d2a2" d="M3.686 188.165c.498 10.26 10.758 5.479 15.34 2.291c4.383-3.088 5.678-.498 6.076-6.475c.299-3.984.697-7.869.498-11.853c-6.674-.598-13.846.996-19.325 4.98c-2.888 1.992-8.068 8.567-2.59 11.057m204.502 126.107c7.869 4.881 22.313 19.624 10.459 26.796c-11.356 10.36-17.73-11.456-27.692-14.444c4.283-5.877 9.662-11.256 17.233-12.352m-140.85 16.635c-9.264 1.395-14.444 9.762-22.213 14.046c-7.272 4.283-10.061-1.395-10.659-2.59c-1.095-.498-.996.498-2.789-1.295c-6.773-10.659 6.973-18.428 14.145-23.708c9.961-1.992 16.237 6.674 21.516 13.547M251.916 186.87c-.498 10.26-10.758 5.479-15.34 2.291c-4.383-3.088-5.678-.498-6.076-6.475c-.3-3.984-.698-7.869-.498-11.853c6.673-.598 13.845.996 19.324 4.98c2.79 1.992 8.069 8.567 2.59 11.057"/><path fill="#69d7e2" d="M224.722 61.759c35.561-12.551 7.77-61.26-23.21-39.745c-20.32-17.432-48.31-20.62-77.696-20.62C95.03 3.687 67.636 8.966 48.511 25.7C17.63 5.777-10.858 53.59 25.4 65.644c-10.16 39.445 1.394 79.688-.2 119.831c-1.494 36.06-10.957 84.37 9.065 116.744c17.034 27.692 53.69 37.554 83.873 38.65c38.549 1.394 85.266-8.069 103.993-45.423c17.93-35.561 12.95-79.888 10.659-118.238c-2.291-38.749 1.992-78.095-8.069-115.45"/><path d="M254.605 180.794c-.996-2.092-2.888-4.483-4.681-5.778c-4.582-3.287-10.46-5.08-16.536-5.279c-.199-6.176-.398-12.95-.398-21.516v-7.77c-.1-24.504-.399-35.262-1.793-48.71c-1.096-10.558-2.79-20.32-5.18-29.484c8.069-3.088 13.348-8.168 15.44-14.743c1.992-6.076.996-12.949-2.39-19.025c-3.487-5.977-9.065-10.46-15.54-12.252c-6.973-1.893-14.543-.498-21.815 4.382c-6.475-5.478-13.945-9.662-22.313-12.85C164.557 2.292 147.325.2 123.916.2v.996l-.1-.996c-25.002 1.992-43.53 5.877-58.87 13.348c-6.176 2.988-11.654 6.574-16.435 10.758c-7.372-4.582-15.042-5.678-22.114-3.486c-6.574 1.992-12.252 6.674-15.639 12.75c-3.387 6.076-4.184 13.049-1.893 19.026c2.291 5.976 7.57 10.658 15.44 13.547c-2.49 10.06-3.785 20.719-3.984 32.473c-.2 11.455.298 20.62 2.091 41.338c1.295 15.44 1.793 22.512 1.993 31.079c-6.774-.299-13.547 1.494-18.628 5.18c-1.793 1.295-3.785 3.586-4.681 5.777c-1.295 2.79-.797 5.28 1.793 6.774c.398 4.781 3.088 6.972 7.172 6.574c2.988-.299 6.574-1.893 9.662-4.084a11.208 11.208 0 0 1 2.092-1.195c.299-.1.498-.2.797-.3c0 0 .597-.198.797-.298c.298-.1.597-.2.796-.399c-.199 4.682-.597 9.563-1.494 20.72c-.996 12.55-1.494 19.424-1.693 27.094c-.897 28.488 2.49 49.207 12.65 65.643c3.188 5.18 7.073 9.762 11.655 13.946c-.897.597-4.682 3.387-5.877 4.283c-4.184 3.188-7.072 5.877-8.766 8.865c-2.191 3.885-2.191 7.77.299 11.854l.1.1l.1.1c1.095 1.095 1.693 1.394 2.49 1.394h.297c.1.2.2.299.3.498c.298.498.597.896.896 1.295c2.49 2.889 5.976 3.586 10.658.797c2.49-1.295 4.283-2.79 8.068-5.977l.2-.2c6.076-5.179 9.064-7.071 13.547-7.769l1.594-.299c.597.3 1.195.499 1.892.797c14.145 5.678 30.58 8.766 47.216 9.364c21.516.797 42.235-1.893 59.766-8.268c4.682-1.693 9.065-3.686 13.249-5.877c2.59.996 4.78 3.088 8.965 7.969c.199.2.199.2.298.398c.2.2.2.3.3.399c.198.299.497.498.696.797c3.288 3.884 5.48 5.777 7.97 6.873c3.286 1.394 6.474.697 9.761-2.291c5.778-3.586 6.176-9.164 2.39-15.54c-2.689-4.482-7.37-9.164-11.753-12.152c5.18-5.08 9.662-11.156 13.148-18.03c9.563-19.125 13.249-41.438 13.05-70.126c-.1-10.16-.499-19.025-1.594-35.96v-.497c.498.199.996.498 1.494.896c3.088 2.092 6.674 3.785 9.662 4.084c4.084.399 6.774-1.793 7.172-6.574c2.49-1.594 2.988-4.084 1.693-6.873M222.93 18.328c5.977 1.594 11.157 5.778 14.344 11.356c3.188 5.578 4.084 11.854 2.291 17.432c-1.892 5.877-6.674 10.559-14.145 13.348a162.04 162.04 0 0 0-5.279-15.739c2.889-2.49 4.283-5.578 1.992-9.96c-2.29-4.384-6.275-4.882-10.36-3.587c-2.59-3.387-5.478-6.375-8.466-9.164c6.574-4.184 13.348-5.379 19.623-3.686M10.56 51.997c-2.092-5.38-1.395-11.754 1.793-17.332c3.187-5.579 8.367-9.961 14.543-11.754c6.375-1.893 13.248-.997 20.022 2.988a65.541 65.541 0 0 0-10.36 11.854c-5.18-2.69-10.459-3.188-13.447 2.29c-3.088 5.878.498 9.563 5.578 12.352c-.697 1.694-1.395 3.487-1.992 5.28c-.698 2.191-1.395 4.482-1.992 6.773c-7.272-2.789-12.053-7.072-14.145-12.451m12.053 135.77c-.1 0-.698.199-.698.298c-.298.1-.597.2-.896.399c-.797.299-1.594.797-2.39 1.394c-2.79 1.993-6.177 3.487-8.767 3.686c-2.988.299-4.681-.996-4.98-4.582c2.092-.697 2.988-1.195 3.785-2.39l-1.594-1.196c-.597.797-1.195 1.096-2.988 1.693c-.1 0-.1 0-.2.1c-1.593-.897-1.892-2.291-.995-4.283c.797-1.793 2.59-3.885 4.084-4.98c4.781-3.487 11.156-5.18 17.531-4.782c0 2.49.1 4.98 0 7.37c0 .3 0 .499-.1.798c-.099 1.394-.099 1.992-.199 2.69c-.298 2.888-.498 3.286-1.593 3.785m30.082 150.312l-.2.2c-3.685 3.187-5.478 4.482-7.769 5.777c-3.785 2.291-6.375 1.793-8.168-.398c-.299-.3-.498-.698-.697-.997c-.1-.1-.2-.298-.299-.398v-.1c.2-1.793.897-3.088 2.69-5.877c.1-.1.1-.1.1-.199c1.095-1.594 1.593-2.49 2.091-3.586l-1.793-.797c-.398.897-.896 1.694-1.893 3.287c-.1.1-.1.1-.1.2c-1.792 2.59-2.59 4.183-2.988 5.976h-.398c-.2-.1-.498-.299-.896-.697c-3.885-6.176-.797-11.455 7.968-18.03c1.096-.796 4.782-3.386 5.778-4.183c.2 0 .398-.1.598-.2c5.378 4.583 11.654 8.567 18.627 11.854c0 .1.1.2.199.3c-4.084.995-7.272 3.087-12.85 7.868m167.247-10.857c3.088 5.18 2.988 9.363-.897 12.252c-.298-.598-.498-1.295-.896-2.291c0-.1 0-.1-.1-.2c-1.394-3.785-2.29-5.378-3.984-7.171l-1.395 1.394c1.494 1.395 2.192 2.889 3.586 6.375c0 .1 0 .1.1.2c.498 1.294.797 2.091 1.096 2.789c-2.59 2.191-4.881 2.59-7.272 1.494c-2.092-.897-4.084-2.79-7.272-6.375c-.199-.2-.398-.498-.597-.797c-.1-.1-.2-.2-.3-.399c-.198-.199-.198-.199-.298-.398c-3.686-4.283-5.877-6.574-8.268-7.87c5.579-3.187 10.56-6.773 15.042-10.957c4.183 3.088 8.865 7.67 11.455 11.954m1.394-32.274c-8.566 17.233-23.707 29.385-44.028 36.756c-17.332 6.276-37.852 8.866-59.069 8.069c-36.557-1.295-68.233-14.045-83.075-38.151c-9.961-16.038-13.249-36.458-12.352-64.548c.299-7.67.697-14.543 1.693-27.094c1.096-14.145 1.395-18.229 1.694-24.604c.199-4.582.199-9.264.1-14.244c-.2-8.766-.698-15.739-1.993-31.378c-1.793-20.719-2.291-29.784-2.092-41.14c.3-14.94 2.291-28.09 6.475-40.54c6.771-20.223 19.224-33.87 37.154-42.734c15.041-7.37 33.27-11.156 58.073-13.149c23.21 0 40.143 2.092 54.786 7.471c17.531 6.475 30.58 17.83 39.545 35.263c5.778 14.144 9.165 29.385 10.958 46.916c1.394 13.348 1.693 24.106 1.793 48.51v7.77c.1 12.053.298 20.52.797 28.987c.199 3.287.298 4.682.796 12.551c1.096 16.934 1.495 25.7 1.594 35.86c.2 28.588-3.387 50.602-12.85 69.429m30.481-109.074c-.1 0-.199-.1-.298-.1c-1.793-.597-2.391-.996-2.989-1.693l-1.594 1.195c.897 1.196 1.793 1.694 3.786 2.39c-.399 3.587-2.092 4.882-4.98 4.583c-2.59-.2-5.978-1.793-8.767-3.686c-.797-.597-1.593-.996-2.39-1.394c-.1 0-.2-.1-.3-.1c-.398-5.478-.398-6.873-.597-9.762l-.299-5.379c5.579.1 11.057 1.793 15.24 4.881c1.495 1.096 3.288 3.188 4.085 4.98c.996 1.694.797 3.188-.897 4.085"/><path fill="#fff" d="M138.918 104.123c.1 5.08 1.096 10.658.2 16.037c-1.395 2.59-3.985 2.89-6.276 3.885c-3.188-.498-5.877-2.59-7.172-5.578c-.797-6.076.199-11.854.498-17.93c0-.2 3.785.1 7.172 1.096c2.888.896 5.578 2.39 5.578 2.49m-28.19.398c-2.79 10.56 3.686 27.792 14.344 13.647c-.797-5.977.1-11.754.398-17.631c.1-.498-14.642 3.287-14.742 3.984"/><path d="M140.113 108.805c-.199-2.989-.299-4.184-.299-5.678v-.697l-.697-.2l-12.55-3.884v-.698l-1.296.3h-.1v.099l-14.144 3.586l-.498.1l-.2.497c-2.19 5.28-1.693 13.249 1.096 18.13c3.188 5.578 8.368 5.677 13.647-.698a10.192 10.192 0 0 0 7.47 5.38h.3l.298-.1c.399-.2.797-.3 1.495-.598c.1 0 .1 0 .199-.1c2.889-.996 4.084-1.793 5.08-3.685l.1-.1v-.2c.298-1.792.398-3.685.398-5.776c0-1.495-.1-2.89-.299-5.678m-15.938-3.686c-.1 1.793-.199 2.49-.298 3.486c-.2 3.686-.2 6.475.1 9.264c-4.682 5.977-8.368 5.977-10.858 1.494c-2.391-4.183-2.89-11.256-1.096-15.937l12.55-3.188c-.099 1.295-.198 2.59-.398 4.881m13.946 14.743c-.697 1.195-1.594 1.793-3.984 2.59c-.1 0-.1 0-.2.099c-.597.2-.996.398-1.295.498c-2.69-.498-4.98-2.291-6.076-4.781c-.299-2.69-.299-5.479-.1-9.164c.1-.997.1-1.694.3-3.487c.199-2.29.298-3.685.298-4.98l10.858 3.287c0 1.295.1 2.49.299 5.08c.199 2.69.298 4.084.298 5.678c0 1.892-.1 3.586-.398 5.18"/><g transform="translate(48.476 21.976)"><path fill="#fff" d="M2.291 38.749c9.164 35.66 66.241 26.496 64.05-9.264C63.75-13.348-6.475-5.08 2.29 38.749"/><path d="M67.337 29.385c-.598-10.36-5.18-18.428-12.75-23.508C47.813 1.295 38.848-.498 29.983.597C21.118 1.794 12.949 5.778 7.57 12.054C1.594 19.026-.697 28.19 1.395 38.749l.896-.2l-.896.2c9.363 36.656 68.133 27.791 65.942-9.364M3.187 38.55c-1.992-10.06.2-18.627 5.778-25.102c5.08-5.877 12.75-9.761 21.217-10.857c8.467-1.096 16.934.598 23.31 4.98c7.071 4.782 11.355 12.253 11.952 22.114c2.092 34.764-53.391 43.132-62.256 8.865"/><ellipse cx="18.03" cy="32.872" rx="9.662" ry="10.459"/><ellipse cx="22.412" cy="35.262" fill="#fff" rx="2.291" ry="2.689"/></g><g transform="translate(129.618 18.098)"><path fill="#fff" d="M1.195 35.96C8.268 76.9 75.206 66.042 65.544 24.803C56.878-12.252-1.196-1.992 1.195 35.96"/><path d="M66.44 24.604C57.575-13.547-2.19-3.088.2 36.059v.1c3.286 19.324 20.52 29.186 39.545 25.998C48.41 60.663 56.18 56.48 61.26 50.304c5.578-6.874 7.57-15.739 5.18-25.7m-6.673 24.504c-4.782 5.778-12.053 9.762-20.321 11.157c-18.03 2.988-34.167-6.276-37.354-24.405C-.1-.996 56.28-10.858 64.647 25.002c2.192 9.463.399 17.731-4.88 24.106"/><ellipse cx="17.631" cy="34.167" rx="9.463" ry="10.459"/><ellipse cx="22.014" cy="36.557" fill="#fff" rx="2.191" ry="2.689"/></g><path fill="#f6d2a2" d="M112.784 83.002c-7.869.697-14.244 9.961-10.16 17.332c5.379 9.762 17.432-.896 24.903.1c8.666.2 15.738 9.164 22.611 1.594c7.67-8.368-3.287-16.536-11.953-20.122z"/><path fill="#231f20" d="M151.134 89.676c-2.69-3.387-7.37-6.475-12.45-8.567l-.2-.1h-.2l-25.5.997c-8.865.797-15.24 11.057-10.957 18.826c1.693 2.989 3.984 4.483 7.072 4.682c2.291.1 4.682-.398 8.368-1.693c.299-.1.697-.2 1.195-.399c4.98-1.693 6.973-2.191 8.965-1.892h.1c2.39 0 4.383.697 8.168 2.191c4.183 1.693 5.478 2.191 7.57 2.39c2.889.2 5.38-.796 7.67-3.286c3.885-4.284 3.686-8.866.2-13.15m-1.693 11.754c-1.893 2.092-3.785 2.79-6.076 2.69c-1.793-.1-2.989-.598-6.973-2.192c-3.984-1.693-6.176-2.291-8.766-2.39c-2.49-.3-4.582.199-9.861 1.992c-.498.199-.897.298-1.196.398c-7.271 2.49-10.758 2.291-13.148-2.092c-3.586-6.474 1.892-15.24 9.363-15.938l25.202-.996c4.781 1.993 9.064 4.881 11.555 7.97c2.988 3.585 3.088 7.171-.1 10.558"/><path d="M140.177 78.719c-3.088-11.356-28.987-9.663-28.39 3.885c1.296 10.06 31.378 7.37 28.39-3.885"/></symbol></svg>